<svg width="20" height="20" viewBox="0 0 20 20" fill="none" xmlns="http://www.w3.org/2000/svg">
<path fill-rule="evenodd" clip-rule="evenodd" d="M5.99517 4.02623C6.33013 3.41746 6.69452 3.01051 7.23523 2.79529C8.22607 2.40131 11.7747 2.40131 12.7648 2.79537C13.3052 3.01047 13.6697 3.41735 14.0049 4.026L14.3818 4.74863C14.3904 4.76295 14.3983 4.77554 14.4055 4.78637L14.4375 4.83013C14.6092 5.01721 14.8965 5.13023 15.0862 5.13023C16.8795 5.13023 18.3337 6.58406 18.3337 8.3769V13.2061C18.3337 15.4929 16.4788 17.3477 14.192 17.3477H5.80866C3.52125 17.3477 1.66699 15.4932 1.66699 13.2061V8.3769C1.66699 6.58406 3.12114 5.13023 4.91449 5.13023C5.10347 5.13023 5.39122 5.01705 5.56319 4.83013C5.56663 4.82638 5.57111 4.82081 5.57653 4.81343L5.61939 4.74769L5.99517 4.02623ZM12.91 4.62905C12.7017 4.25085 12.5135 4.04072 12.3025 3.95676L12.2031 3.92371C11.3455 3.6813 8.36233 3.69232 7.69729 3.95676C7.48644 4.04068 7.29839 4.2507 7.09034 4.62882L6.76962 5.2489L6.69069 5.39176C6.62479 5.50137 6.55888 5.59389 6.48362 5.67589C6.06156 6.13465 5.4372 6.38023 4.91449 6.38023L4.77775 6.38484C3.73845 6.45512 2.91699 7.32041 2.91699 8.3769V13.2061C2.91699 14.8029 4.21165 16.0977 5.80866 16.0977H14.192C15.7885 16.0977 17.0837 14.8026 17.0837 13.2061V8.3769C17.0837 7.27448 16.1892 6.38023 15.0862 6.38023L14.9411 6.37417C14.4506 6.33381 13.8997 6.09287 13.5165 5.67534C13.4423 5.59442 13.3767 5.50256 13.3112 5.39388C13.3018 5.37828 13.2901 5.35776 13.2767 5.33347L13.18 5.15202L12.91 4.62905Z" fill="#8A8A8A"/>
<path d="M14.5869 7.08331C15.0472 7.08331 15.4203 7.45641 15.4203 7.91665C15.4203 8.34401 15.0986 8.69624 14.6841 8.74437L14.5869 8.74998C14.1192 8.74998 13.7461 8.37688 13.7461 7.91665C13.7461 7.48928 14.0678 7.13706 14.4822 7.08892L14.5869 7.08331Z" fill="#8A8A8A"/>
<path fill-rule="evenodd" clip-rule="evenodd" d="M6.72559 10.94C6.72559 9.13149 8.19124 7.66583 9.99975 7.66583C11.8083 7.66583 13.2739 9.13149 13.2739 10.94C13.2739 12.7485 11.8083 14.2142 9.99975 14.2142C8.19124 14.2142 6.72559 12.7485 6.72559 10.94ZM12.0239 10.94C12.0239 9.82184 11.1179 8.91583 9.99975 8.91583C8.8816 8.91583 7.97559 9.82184 7.97559 10.94C7.97559 12.0582 8.8816 12.9642 9.99975 12.9642C11.1179 12.9642 12.0239 12.0582 12.0239 10.94Z" fill="#8A8A8A"/>
</svg>
