<svg width="20" height="20" viewBox="0 0 20 20" fill="none" xmlns="http://www.w3.org/2000/svg">
<path fill-rule="evenodd" clip-rule="evenodd" d="M6.38758 2.91669C4.27925 2.91669 2.91675 4.36085 2.91675 6.59669V13.4034C2.91675 15.6392 4.27925 17.0834 6.38758 17.0834H13.6109C15.7201 17.0834 17.0834 15.6392 17.0834 13.4034V6.59669C17.0834 4.36085 15.7201 2.91669 13.6117 2.91669H6.38758ZM13.6109 18.3334H6.38758C3.56341 18.3334 1.66675 16.3517 1.66675 13.4034V6.59669C1.66675 3.64835 3.56341 1.66669 6.38758 1.66669H13.6117C16.4359 1.66669 18.3334 3.64835 18.3334 6.59669V13.4034C18.3334 16.3517 16.4359 18.3334 13.6109 18.3334Z" fill="#2AB7C0"/>
<path fill-rule="evenodd" clip-rule="evenodd" d="M9.01133 12.6025C8.85216 12.6025 8.69133 12.5417 8.56966 12.4192L6.59133 10.4417C6.34716 10.1975 6.34716 9.8025 6.59133 9.55833C6.83549 9.31416 7.23049 9.31416 7.47466 9.55833L9.01133 11.0933L12.5247 7.58083C12.7688 7.33666 13.1638 7.33666 13.408 7.58083C13.6522 7.825 13.6522 8.22 13.408 8.46416L9.45299 12.4192C9.33133 12.5417 9.17133 12.6025 9.01133 12.6025Z" fill="#2AB7C0"/>
</svg>
