<svg width="16" height="16" viewBox="0 0 16 16" fill="none" xmlns="http://www.w3.org/2000/svg">
<path fill-rule="evenodd" clip-rule="evenodd" d="M13.8344 14.6265H8.99902C8.72302 14.6265 8.49902 14.4025 8.49902 14.1265C8.49902 13.8505 8.72302 13.6265 8.99902 13.6265H13.8344C14.1104 13.6265 14.3344 13.8505 14.3344 14.1265C14.3344 14.4025 14.1104 14.6265 13.8344 14.6265" fill="#8A8A8A"/>
<mask id="mask0_398_3999" style="mask-type:luminance" maskUnits="userSpaceOnUse" x="1" y="2" width="12" height="13">
<path fill-rule="evenodd" clip-rule="evenodd" d="M1.33398 2.00009H12.7877V14.6265H1.33398V2.00009Z" fill="white"/>
</mask>
<g mask="url(#mask0_398_3999)">
<path fill-rule="evenodd" clip-rule="evenodd" d="M8.74083 3.34452L2.46417 11.1945C2.35017 11.3372 2.30817 11.5212 2.35017 11.6979L2.80417 13.6212L4.83017 13.5959C5.02283 13.5939 5.20083 13.5079 5.31883 13.3612C7.4635 10.6779 11.5522 5.56185 11.6682 5.41185C11.7775 5.23452 11.8202 4.98385 11.7628 4.74252C11.7042 4.49519 11.5502 4.28519 11.3282 4.15119C11.2808 4.11852 10.1575 3.24652 10.1228 3.21919C9.70017 2.88052 9.0835 2.93919 8.74083 3.34452V3.34452ZM2.4095 14.6265C2.17817 14.6265 1.97683 14.4679 1.92283 14.2419L1.37683 11.9279C1.26417 11.4485 1.37617 10.9539 1.6835 10.5699L7.9635 2.71519C7.96617 2.71252 7.96817 2.70919 7.97083 2.70652C8.6595 1.88319 9.90483 1.76185 10.7448 2.43585C10.7782 2.46185 11.8935 3.32852 11.8935 3.32852C12.2988 3.56985 12.6155 4.00119 12.7355 4.51185C12.8548 5.01719 12.7682 5.53852 12.4902 5.97919C12.4695 6.01185 12.4515 6.03985 6.0995 13.9865C5.7935 14.3679 5.33483 14.5899 4.84217 14.5959L2.41617 14.6265H2.4095Z" fill="#8A8A8A"/>
</g>
<path fill-rule="evenodd" clip-rule="evenodd" d="M10.8163 7.78986C10.7096 7.78986 10.6029 7.75586 10.5116 7.68653L6.87693 4.89453C6.65826 4.72653 6.61693 4.41319 6.78493 4.19319C6.9536 3.97453 7.26693 3.93386 7.48626 4.10186L11.1216 6.89319C11.3403 7.06119 11.3816 7.37519 11.2129 7.59453C11.1149 7.72253 10.9663 7.78986 10.8163 7.78986" fill="#8A8A8A"/>
</svg>
