<svg width="15" height="15" viewBox="0 0 15 15" fill="none" xmlns="http://www.w3.org/2000/svg">
<path fill-rule="evenodd" clip-rule="evenodd" d="M14.3534 1.84465H0.646552C0.289655 1.84465 0 1.55345 0 1.19465C0 0.835847 0.289655 0.544647 0.646552 0.544647H14.3534C14.7103 0.544647 15 0.835847 15 1.19465C15 1.55345 14.7103 1.84465 14.3534 1.84465Z" fill="#252525"/>
<path fill-rule="evenodd" clip-rule="evenodd" d="M14.3534 8.00535H0.646552C0.289655 8.00535 0 7.71415 0 7.35535C0 6.99655 0.289655 6.70535 0.646552 6.70535H14.3534C14.7103 6.70535 15 6.99655 15 7.35535C15 7.71415 14.7103 8.00535 14.3534 8.00535Z" fill="#252525"/>
<path fill-rule="evenodd" clip-rule="evenodd" d="M14.3534 14.1661H0.646552C0.289655 14.1661 0 13.8749 0 13.5161C0 13.1573 0.289655 12.8661 0.646552 12.8661H14.3534C14.7103 12.8661 15 13.1573 15 13.5161C15 13.8749 14.7103 14.1661 14.3534 14.1661Z" fill="#252525"/>
</svg>
