<svg width="21" height="14" viewBox="0 0 21 14" fill="none" xmlns="http://www.w3.org/2000/svg">
<path fill-rule="evenodd" clip-rule="evenodd" d="M1.13743 0H14.8517C15.4829 0 15.9956 0.513461 15.9891 1.14461C15.9877 1.27761 15.986 1.40989 15.9841 1.54144C16.606 1.38605 17.3827 1.31811 18.1157 1.5527C18.6531 1.72464 19.1676 2.06191 19.5348 2.6268C19.8942 3.17963 20.061 3.87089 20.061 4.67179C20.061 8.55743 16.9465 11.005 14.3943 11.005C14.3016 11.005 14.2118 10.9924 14.1266 10.9688C12.9516 12.7156 11.0523 13.7143 7.99457 13.7143C1.03413 13.7143 0.0764327 8.5395 6.14708e-05 1.14461C-0.00645675 0.51346 0.506248 0 1.13743 0ZM15.1044 8.89652C16.4708 8.49971 18.061 7.02608 18.061 4.67179C18.061 4.13935 17.95 3.85839 17.8579 3.71678C17.7737 3.58722 17.6633 3.50782 17.5062 3.45755C17.1272 3.33627 16.5531 3.41864 16.099 3.60026C16.0345 3.62607 15.9738 3.64887 15.9166 3.66885C15.8131 5.6523 15.5842 7.41899 15.1044 8.89652Z" fill="#2AB7C0"/>
</svg>
