<svg width="71" height="67" viewBox="0 0 71 67" fill="none" xmlns="http://www.w3.org/2000/svg">
<path d="M3.0562 15.0852L18.6521 2.00086C20.1926 0.708418 22.1392 0 24.1501 0H62.4458C67.1701 0 71 3.82985 71 8.55421V45.9102C71 48.4591 69.8633 50.8752 67.8997 52.5003L53.0876 64.7588C51.5536 66.0283 49.6248 66.7229 47.6337 66.7229H8.55422C3.82985 66.7229 0 62.893 0 58.1687V21.6386C0 19.1098 1.11889 16.7106 3.0562 15.0852Z" fill="#2AB7C0"/>
<path fill-rule="evenodd" clip-rule="evenodd" d="M35.9104 13.6865C26.2271 13.6865 21.3855 20.949 21.3855 28.2114C21.3855 36.3329 28.1971 43.8867 33.2508 49.4447C34.6624 50.9972 37.1583 50.9972 38.5699 49.4447C43.6236 43.8867 50.4352 36.3329 50.4352 28.2114C50.4352 20.949 45.5936 13.6865 35.9104 13.6865ZM35.9277 32.5059C38.7623 32.5059 41.0602 30.208 41.0602 27.3734C41.0602 24.5388 38.7623 22.2408 35.9277 22.2408C33.0931 22.2408 30.7952 24.5388 30.7952 27.3734C30.7952 30.208 33.0931 32.5059 35.9277 32.5059Z" fill="white"/>
</svg>
