<svg width="95" height="70" viewBox="0 0 95 70" fill="none" xmlns="http://www.w3.org/2000/svg">
<g filter="url(#filter0_d_554_1873)">
<path fill-rule="evenodd" clip-rule="evenodd" d="M30.3718 9C19.6731 9 11 17.673 11 28.3718C11 39.0706 19.6731 47.7436 30.3718 47.7436H40.3389C41.4439 47.7436 42.4594 48.351 42.9821 49.3246L46.6784 56.2096C47.2443 57.2636 48.7557 57.2636 49.3216 56.2096L53.0179 49.3246C53.5406 48.351 54.5561 47.7436 55.6611 47.7436H64.6282C75.327 47.7436 84 39.0706 84 28.3718C84 17.673 75.327 9 64.6282 9H30.3718Z" fill="#2AB7C0"/>
<path d="M46.6784 56.2096L47.1189 55.9731L47.1189 55.9731L46.6784 56.2096ZM49.3216 56.2096L48.8811 55.9731L48.8811 55.9731L49.3216 56.2096ZM53.0179 49.3246L52.5774 49.0881L53.0179 49.3246ZM11.5 28.3718C11.5 17.9492 19.9492 9.5 30.3718 9.5V8.5C19.3969 8.5 10.5 17.3969 10.5 28.3718H11.5ZM30.3718 47.2436C19.9492 47.2436 11.5 38.7944 11.5 28.3718H10.5C10.5 39.3467 19.3969 48.2436 30.3718 48.2436V47.2436ZM40.3389 47.2436H30.3718V48.2436H40.3389V47.2436ZM47.1189 55.9731L43.4226 49.0881L42.5416 49.5611L46.2379 56.4461L47.1189 55.9731ZM48.8811 55.9731C48.5038 56.6758 47.4962 56.6758 47.1189 55.9731L46.2379 56.4461C46.9923 57.8514 49.0077 57.8514 49.7621 56.4461L48.8811 55.9731ZM52.5774 49.0881L48.8811 55.9731L49.7621 56.4461L53.4584 49.5611L52.5774 49.0881ZM64.6282 47.2436H55.6611V48.2436H64.6282V47.2436ZM83.5 28.3718C83.5 38.7944 75.0508 47.2436 64.6282 47.2436V48.2436C75.6031 48.2436 84.5 39.3467 84.5 28.3718H83.5ZM64.6282 9.5C75.0508 9.5 83.5 17.9492 83.5 28.3718H84.5C84.5 17.3969 75.6031 8.5 64.6282 8.5V9.5ZM30.3718 9.5H64.6282V8.5H30.3718V9.5ZM53.4584 49.5611C53.894 48.7498 54.7403 48.2436 55.6611 48.2436V47.2436C54.3719 47.2436 53.1872 47.9523 52.5774 49.0881L53.4584 49.5611ZM40.3389 48.2436C41.2597 48.2436 42.106 48.7498 42.5416 49.5611L43.4226 49.0881C42.8128 47.9523 41.6281 47.2436 40.3389 47.2436V48.2436Z" fill="#E8F8F9"/>
<path fill-rule="evenodd" clip-rule="evenodd" d="M44.1088 35.3814C42.6367 37.589 40.1885 38.8028 36.1357 38.8028C27.4259 38.8028 26.1271 33.1964 26.0009 24.1687C25.9848 23.0159 26.4788 21.9144 27.5265 21.4332C29.024 20.7453 31.7306 19.9277 36.1357 19.9277C40.5409 19.9277 43.2475 20.7453 44.745 21.4332C45.5803 21.8168 46.0637 22.5948 46.2171 23.4787C47.0143 23.2738 48.022 23.1779 48.972 23.4799C49.6535 23.6966 50.3062 24.1215 50.7719 24.8332C51.2276 25.5298 51.4392 26.4007 51.4392 27.4098C51.4392 32.3056 47.4892 35.3894 44.2522 35.3894C44.2037 35.3894 44.1559 35.3867 44.1088 35.3814ZM45.3321 32.6765C47.0217 32.1041 48.9026 30.2743 48.9026 27.4098C48.9026 26.739 48.7618 26.385 48.6451 26.2065C48.5383 26.0433 48.3982 25.9433 48.199 25.8799C47.7183 25.7271 46.9901 25.8309 46.4143 26.0597C46.3463 26.0868 46.2816 26.1112 46.2201 26.1331C46.1208 28.646 45.8784 30.8459 45.3321 32.6765Z" fill="#E8F8F9"/>
<path d="M28 24.2992C28 22.5219 32.8 21.9147 35.9992 21.9147C39.1983 21.9147 44 22.5219 44 24.2992C44 25.8889 36.8 25.8889 35.9992 25.8889C35.1984 25.8889 28 25.8889 28 24.2992Z" fill="#2AB7C0"/>
</g>
<defs>
<filter id="filter0_d_554_1873" x="0.5" y="0.5" width="94" height="69.0001" filterUnits="userSpaceOnUse" color-interpolation-filters="sRGB">
<feFlood flood-opacity="0" result="BackgroundImageFix"/>
<feColorMatrix in="SourceAlpha" type="matrix" values="0 0 0 0 0 0 0 0 0 0 0 0 0 0 0 0 0 0 127 0" result="hardAlpha"/>
<feOffset dy="2"/>
<feGaussianBlur stdDeviation="5"/>
<feComposite in2="hardAlpha" operator="out"/>
<feColorMatrix type="matrix" values="0 0 0 0 0 0 0 0 0 0 0 0 0 0 0 0 0 0 0.25 0"/>
<feBlend mode="normal" in2="BackgroundImageFix" result="effect1_dropShadow_554_1873"/>
<feBlend mode="normal" in="SourceGraphic" in2="effect1_dropShadow_554_1873" result="shape"/>
</filter>
</defs>
</svg>
