<svg width="34" height="18" viewBox="0 0 34 18" fill="none" xmlns="http://www.w3.org/2000/svg">
<path d="M0.824535 4.0593L5.05679 0.531474C5.46877 0.188069 5.98812 0 6.52445 0H31.7078C32.9738 0 34 1.02625 34 2.29219V12.3466C34 13.0321 33.6932 13.6817 33.1636 14.1171L29.1434 17.4228C28.7332 17.7601 28.2186 17.9444 27.6876 17.9444H2.29219C1.02625 17.9444 0 16.9182 0 15.6523V5.82002C0 5.13985 0.30207 4.4948 0.824535 4.0593Z" fill="#2AB7C0"/>
<path d="M16.0403 3.3975V14.0052H14.7309V8.20827H12.6964V7.14335H14.7309V3.3975H16.0403ZM7.01132 10.9472C8.70607 10.1516 9.70883 8.14612 9.71297 6.21103V5.49833H7.4464V4.4417H13.3179V5.49833H11.0431V6.21103C11.0389 8.03838 12.0334 9.97346 13.7365 10.7235L12.9657 11.7552C11.7351 11.171 10.8566 9.99833 10.3925 8.59777C9.92844 10.0936 9.02513 11.3533 7.79032 11.9748L7.01132 10.9472ZM25.7735 3.3975V5.99556H27.2403V7.06048H25.7735V9.5881H24.4516V3.3975H25.7735ZM17.8135 8.91683V4.14335H22.5538V5.19584H19.1063V7.86435C21.1284 7.85192 22.2555 7.78976 23.5152 7.52871L23.6353 8.57705C22.2679 8.86711 21.0166 8.91683 18.6754 8.91683H17.8135ZM18.7293 11.8671C18.7251 10.5536 20.1174 9.78286 22.3135 9.77457C24.4848 9.78286 25.8563 10.5536 25.8563 11.8671C25.8563 13.2014 24.4848 13.9762 22.3135 13.9721C20.1174 13.9762 18.7251 13.2014 18.7293 11.8671ZM20.0138 11.8671C20.0096 12.5508 20.8591 12.9362 22.3135 12.932C23.7389 12.9362 24.5925 12.5508 24.5967 11.8671C24.5925 11.1876 23.7389 10.8188 22.3135 10.8229C20.8591 10.8188 20.0096 11.1876 20.0138 11.8671Z" fill="white"/>
</svg>
